# xmcd
#
# Track frame offsets: 
#        150
#        12334
#        30497
#        43798
#        65327
#        78493
#        96762
#        109582
#        127372
#        140585
#
# Disc length: 2097 seconds
#
# Revision: 3
# Processed by: cddbd v1.5.2PL0 Copyright (c) Steve Scherf et al.
# Submitted via: ExactAudioCopyFreeDBPlugin 1.0
#
DISCID=86082f0a
DTITLE=Mavis Staples - One True Vine
DYEAR=2013
DGENRE=Rhythm and Blues
TTITLE0=Holy Ghost
TTITLE1=Every Step
TTITLE2=Can You Get to That
TTITLE3=Jesus Wept
TTITLE4=Far Celestial Shores
TTITLE5=What Are They Doing in Heaven Today
TTITLE6=Sow Good Seeds
TTITLE7=I Like the Things About Me
TTITLE8=Woke Up This Morning (With Jesus on My Mind)
TTITLE9=One True Vine
EXTD=
EXTT0=
EXTT1=
EXTT2=
EXTT3=
EXTT4=
EXTT5=
EXTT6=
EXTT7=
EXTT8=
EXTT9=
PLAYORDER=
